<?xml version="1.0" encoding="utf-8"?>
<!-- Generator: Adobe Illustrator 16.0.0, SVG Export Plug-In . SVG Version: 6.00 Build 0)  -->
<!DOCTYPE svg PUBLIC "-//W3C//DTD SVG 1.1//EN" "http://www.w3.org/Graphics/SVG/1.1/DTD/svg11.dtd">
<svg version="1.1" id="Layer_1" xmlns="http://www.w3.org/2000/svg" xmlns:xlink="http://www.w3.org/1999/xlink" x="0px" y="0px"
	 width="115.38px" height="27.182px" viewBox="0 0 115.38 27.182" enable-background="new 0 0 115.38 27.182" xml:space="preserve">
<text transform="matrix(1 0 0 1 31.3281 12.5205)" font-family="'MyriadPro-Bold'" font-size="8.6554">Content Management</text>
<text transform="matrix(1 0 0 1 31.3281 21.4434)" font-family="'MyriadPro-Regular'" font-size="8.6554">Service</text>
<path d="M13.59,0C6.084,0,0,6.084,0,13.591c0,7.506,6.084,13.591,13.59,13.591s13.591-6.085,13.591-13.591
	C27.181,6.084,21.096,0,13.59,0z M13.59,24.6c-6.079,0-11.008-4.93-11.008-11.009S7.511,2.582,13.59,2.582
	c6.08,0,11.009,4.93,11.009,11.009S19.67,24.6,13.59,24.6z"/>
<g>
	<g>
		<path fill-rule="evenodd" clip-rule="evenodd" d="M20.123,9.931c-3.907,0-7.813,0-11.72,0C8.396,9.909,8.389,9.89,8.38,9.871
			c0-0.369,0-0.736,0.001-1.104c0.008-0.02,0.017-0.041,0.025-0.059c3.904,0,7.809,0,11.713,0c0.009,0.018,0.018,0.039,0.025,0.059
			c0,0.367,0.001,0.734,0.001,1.104C20.137,9.89,20.129,9.909,20.123,9.931z"/>
		<path fill-rule="evenodd" clip-rule="evenodd" d="M20.123,13.095c-3.907,0-7.813,0-11.72,0c-0.007-0.021-0.015-0.041-0.023-0.061
			c0-0.368,0-0.735,0.001-1.104c0.008-0.019,0.017-0.04,0.025-0.059c3.904,0,7.809,0,11.713,0c0.009,0.019,0.018,0.04,0.025,0.059
			c0,0.368,0.001,0.735,0.001,1.104C20.137,13.054,20.129,13.073,20.123,13.095z"/>
		<path fill-rule="evenodd" clip-rule="evenodd" d="M20.123,16.259c-3.907,0-7.813,0-11.72,0c-0.007-0.021-0.015-0.041-0.023-0.061
			c0-0.367,0-0.735,0.001-1.104c0.008-0.019,0.017-0.04,0.025-0.059c3.904,0,7.809,0,11.713,0c0.009,0.019,0.018,0.04,0.025,0.059
			c0,0.368,0.001,0.736,0.001,1.104C20.137,16.218,20.129,16.237,20.123,16.259z"/>
		<path fill-rule="evenodd" clip-rule="evenodd" d="M15.58,19.422c-2.396,0-4.791,0-7.186,0c-0.005-0.021-0.009-0.041-0.015-0.059
			c0-0.369,0-0.736,0-1.104c0.006-0.019,0.011-0.04,0.016-0.06c2.395,0,4.788,0,7.183,0c0.005,0.02,0.011,0.041,0.016,0.06
			c0,0.368,0,0.735,0,1.104C15.589,19.381,15.584,19.401,15.58,19.422z"/>
	</g>
	<rect x="7.744" y="8.994" fill-rule="evenodd" clip-rule="evenodd" fill="#F8F7F6" width="2.467" height="9.51"/>
	<path fill-rule="evenodd" clip-rule="evenodd" d="M10.211,8.994c0.123-1.203-0.046-1.474-0.979-1.49
		c-1.52-0.027-1.64,0.091-1.548,1.504C8.512,9.004,9.339,9,10.211,8.994z"/>
	<g>
		<g>
			<path fill-rule="evenodd" clip-rule="evenodd" d="M9.304,9.541v8.963H8.651V9.541H7.744v8.963l0.175,0.604l0.206,0.408
				l0.001-0.002c0.251,0.492,0.525,1.031,0.832,1.633c0.41-0.761,0.763-1.414,1.109-2.055l0.144-0.588V9.541H9.304z"/>
		</g>
	</g>
</g>
</svg>
